<?xml version="1.0" encoding="UTF-8"?>
<svg width="512px" height="512px" viewBox="0 0 512 512" version="1.1" xmlns="http://www.w3.org/2000/svg" xmlns:xlink="http://www.w3.org/1999/xlink">
    <title>Icon</title>
    <defs>
        <circle id="path-1" cx="256" cy="256" r="256"></circle>
        <linearGradient x1="0%" y1="0%" x2="100%" y2="100%" id="linearGradient-3">
            <stop stop-color="#F46265" offset="0%"></stop>
            <stop stop-color="#B52E31" offset="100%"></stop>
        </linearGradient>
        <linearGradient x1="100%" y1="50%" x2="-6.11181022%" y2="50%" id="linearGradient-4">
            <stop stop-color="#FFFFFF" stop-opacity="0.241656537" offset="0%"></stop>
            <stop stop-color="#A5A5A5" offset="100%"></stop>
        </linearGradient>
        <linearGradient x1="-277.940688%" y1="-330.117346%" x2="412.980917%" y2="360.994268%" id="linearGradient-5">
            <stop stop-color="#F46265" offset="0%"></stop>
            <stop stop-color="#B52E31" offset="100%"></stop>
        </linearGradient>
    </defs>
    <g id="Icon" stroke="none" stroke-width="1" fill="none" fill-rule="evenodd">
        <g id="Group">
            <mask id="mask-2" fill="white">
                <use xlink:href="#path-1"></use>
            </mask>
            <circle stroke="#979797" cx="256" cy="256" r="255.5"></circle>
            <g mask="url(#mask-2)">
                <rect id="Background" fill="url(#linearGradient-3)" x="0" y="0" width="512" height="512"></rect>
                <g id="Group-2" transform="translate(95.000000, 148.000000)">
                    <path d="M0,1.42108547e-14 L34.2677707,53.9435464 L82.8974596,133.331939 C83.4918507,134.302287 84.1027613,135.26242 84.7299244,136.211916 L94.3266958,150.740993 C98.4180105,156.935058 103.195154,162.647713 108.567474,167.770551 L112.172885,171.208533 C115.142085,174.039847 118.51768,176.411606 122.187863,178.245249 C125.85376,180.076751 129.795556,181.293782 133.855891,181.847755 L135.92991,182.130725 C140.410078,182.741979 144.926546,183.048661 149.448219,183.048661 L176.438846,183.048661 L176.438846,183.048661 L179.63231,183.048661 L243.961393,183.048661 L249.558296,183.048661 L345,183.086926" id="Path-2" stroke="#FFFFFF" stroke-width="30" stroke-linecap="round"></path>
                    <path d="M138.913108,197.546706 L196.514852,168.106952 L261.950682,168.106952 L261.950682,198.0669 L150.026593,198.0669 C146.946491,198.005128 144.664065,197.940137 143.179312,197.871927 C141.694559,197.803718 140.272491,197.695311 138.913108,197.546706 Z" id="Path" fill="url(#linearGradient-4)"></path>
                    <path d="M140.311354,184.136334 L140.311354,184.136334 L140.311354,184.136334 L150.19706,183.087727 C155.698136,182.504212 161.093149,181.168737 166.231194,179.118659 C171.351407,177.075696 176.060435,174.124547 180.131426,170.407383 L181.028104,169.588638 C185.683686,165.337691 189.445523,160.201653 192.093877,154.480534 L192.645737,153.288377 C195.105313,147.975065 196.577106,142.258391 196.98914,136.417927 C197.40105,130.579199 196.727758,124.714685 195.003343,119.121225 L194.557069,117.673652 C192.877431,112.225433 190.216377,107.129991 186.705016,102.638374 L185.654009,101.293962 C182.829946,97.681515 179.47662,94.5161858 175.707422,91.9050086 L175.446085,91.7239632 C171.846355,89.2301884 167.923025,87.2395226 163.784771,85.8071063 C159.645603,84.374374 155.333962,83.49963 150.963699,83.2059722 L149.889559,83.1337958 C144.81568,82.7928589 139.719812,83.2570002 134.791021,84.5089992 L134.120899,84.6792218 C128.760137,86.0409491 123.69592,88.3780909 119.181524,91.5737607 L113.150771,95.8428362 L113.150771,95.8428362" id="Path-3" stroke="#FFFFFF" stroke-width="27" stroke-linecap="round" stroke-linejoin="round"></path>
                </g>
                <circle id="Oval" fill="url(#linearGradient-5)" cx="242" cy="281" r="36.5"></circle>
            </g>
        </g>
    </g>
</svg>