<?xml version="1.0" encoding="UTF-8"?>
<svg width="512px" height="512px" viewBox="0 0 512 512" version="1.1" xmlns="http://www.w3.org/2000/svg" xmlns:xlink="http://www.w3.org/1999/xlink">
    <title>Icon</title>
    <defs>
        <circle id="path-1" cx="256" cy="256" r="256"></circle>
        <linearGradient x1="50%" y1="0%" x2="50%" y2="100%" id="linearGradient-3">
            <stop stop-color="#FF8126" offset="0%"></stop>
            <stop stop-color="#FF117E" offset="100%"></stop>
        </linearGradient>
    </defs>
    <g id="Icon" stroke="none" stroke-width="1" fill="none" fill-rule="evenodd">
        <mask id="mask-2" fill="white">
            <use xlink:href="#path-1"></use>
        </mask>
        <circle stroke="#979797" cx="256" cy="256" r="255.5"></circle>
        <g id="Group-2" mask="url(#mask-2)">
            <g transform="translate(-38.136183, -41.147883)">
                <rect id="Background" fill="url(#linearGradient-3)" x="38.1361834" y="41.1478829" width="512" height="512"></rect>
                <g id="Paw" stroke-width="1" fill="none" transform="translate(341.545019, 343.147358) rotate(-40.000000) translate(-341.545019, -343.147358) translate(105.045019, 93.647358)">
                    <g id="308974" transform="translate(0.054055, 8.656964)" fill="#FFFFFF" fill-rule="nonzero">
                        <g id="Group" transform="translate(236.000000, 245.000000) scale(-1, 1) rotate(-180.000000) translate(-236.000000, -245.000000) ">
                            <path d="M310.080521,489.198204 C297.148391,485.480784 288.139491,480.01399 278.549372,470.246652 C262.202578,453.627599 252.103892,430.448394 248.689228,401.656614 C246.219046,380.518345 248.834533,362.149918 256.753646,345.385084 C260.604225,337.148448 263.365016,332.993685 269.031905,327.089548 C279.275896,316.374632 290.537021,310.907838 302.669975,310.907838 C309.42665,310.907838 314.221709,312.219869 321.777561,316.010179 C348.150389,329.276265 366.749408,359.015623 371.61712,395.460914 C373.578735,410.330593 372.270992,432.124877 368.565718,444.807839 C362.60822,465.435874 348.150389,481.982036 330.713808,488.104845 C325.337529,490 314.730276,490.583125 310.080521,489.198204 Z" id="Path"></path>
                            <path d="M416.952229,347.644692 C400.096868,344.073053 382.878245,332.264779 371.181205,316.447523 C359.556818,300.557375 352.509534,282.699183 349.38548,261.196461 C347.641822,249.023733 347.569169,244.212955 349.022218,235.101632 C351.347095,220.742187 357.159289,208.423679 365.732274,199.7497 C371.689772,193.699781 377.356661,190.201033 384.476598,188.378769 C400.605435,184.078224 421.601984,191.221501 438.239387,206.674305 C448.991945,216.587424 460.471027,235.101632 465.629349,250.918889 C470.424409,265.424115 472.749286,284.011213 471.441543,296.767065 C470.279104,308.137996 465.774654,320.820957 459.889808,329.422046 C457.85554,332.41056 451.680085,338.67915 448.192769,341.376102 C439.910393,347.790473 428.286006,350.122972 416.952229,347.644692 Z" id="Path"></path>
                            <path d="M40.9759639,338.824931 C22.4495973,335.982199 8.42768053,323.882362 3.5599685,306.534403 C-0.0726524184,293.414098 -0.944481438,279.491997 1.08978628,265.788568 C4.64975477,241.588894 15.1843554,219.79461 31.1678875,203.685791 C42.1384026,192.679313 52.2370888,186.337832 66.0410483,181.745726 C82.3878424,176.424713 96.8456736,180.287914 108.615365,193.043766 C118.641399,203.904463 122.491977,215.056722 123.218502,235.466085 C123.509111,244.577408 123.363806,247.930375 122.056063,255.438105 C118.06018,278.981763 107.961494,298.735111 91.5420471,315.354164 C80.4988795,326.506423 67.7120539,334.88884 57.831325,337.44001 C53.4721799,338.60626 44.2453228,339.335165 40.9759639,338.824931 Z" id="Path"></path>
                            <path d="M228.92777,245.306314 C194.708481,240.932879 161.361021,221.10664 140.364472,192.460641 C122.56463,168.260968 108.833323,143.113717 99.8970752,118.185137 C98.1930631,113.468294 95.8544086,105.901898 92.8811119,95.4859468 L174.219221,27.2351692 C197.061698,7.18416077 225.396561,-1.40462325 259.223809,1.46881711 C288.359664,3.94374923 312.466215,16.1139863 331.543462,37.9795285 L389.162804,106.647585 C383.339111,120.669982 378.120204,131.416141 373.506083,138.886063 C344.808377,185.317364 322.64939,211.04774 295.985952,228.905933 C284.143608,236.851006 272.882483,241.661785 259.950353,244.212955 C253.26633,245.597876 235.975055,246.181001 228.92777,245.306314 Z" id="Path"></path>
                        </g>
                    </g>
                    <g id="57b83ba79956ea4621e17cb0bef005f2" transform="translate(163.119918, 101.096268) rotate(-7.000000) translate(-163.119918, -101.096268) translate(99.619918, 7.096268)" fill="#FFFFFF" fill-rule="nonzero">
                        <g id="Group" transform="translate(63.387609, 94.070169) scale(-1, 1) rotate(-180.000000) translate(-63.387609, -94.070169) translate(0.387609, 0.570169)">
                            <path d="M53.262946,185.741341 C33.0968624,182.633097 15.8678639,169.990877 6.6364817,151.685718 C2.84963795,144.109136 0.935304783,137.211651 0.21291491,128.35677 C-0.340283651,121.331835 0.511375989,119.07579 4.25449615,117.671945 C6.59465913,116.777896 8.63636104,117.076547 10.4233255,118.607842 C12.3794812,120.268488 12.8490346,121.503036 13.1455947,126.441225 C14.2519918,144.618934 24.9300547,160.496847 41.3092946,168.415831 C43.9041951,169.650378 47.9457763,171.225424 50.2441167,171.820822 C54.1583292,172.884169 55.0518114,172.969769 62.7509667,172.969769 C70.4082993,172.969769 71.3873277,172.884169 75.3015402,171.820822 C77.6417032,171.181673 81.6832844,169.650378 84.2781849,168.372079 C99.7639425,160.751746 109.932531,146.532577 112.101601,129.378268 C112.314516,127.632021 112.527431,120.226639 112.527431,112.946805 C112.527431,99.9203346 112.527431,99.6654358 113.506459,98.3034392 C116.228729,94.2174493 122.015452,94.2174493 124.56853,98.3034392 C125.503834,99.7510362 125.503834,100.133384 125.503834,114.266953 C125.503834,123.802832 125.290919,129.975568 124.950636,132.359062 C122.057274,151.558269 110.65492,168.415831 94.020943,178.03731 C81.9798445,185.060343 66.9199166,187.869936 53.262946,185.741341 Z" id="Path"></path>
                            <path d="M54.6678042,162.796643 C39.1402239,159.646551 26.631473,147.599728 23.1430903,132.359062 C22.8883528,131.293813 22.462523,127.846972 22.1222394,124.69688 C21.4834946,118.012444 20.5481898,115.62895 17.4000908,112.564457 C15.0181053,110.222812 12.4232048,108.988265 8.80555235,108.434716 C4.21077255,107.753718 4.12522638,107.711869 2.55117687,106.349872 C-0.682468328,103.498429 -0.214815936,98.5602402 3.48648165,96.0911458 C4.37996386,95.5375968 5.48636098,95.3245471 7.86834654,95.3245471 C19.2269768,95.3245471 29.9905859,103.454678 33.8192522,114.820502 C34.3724508,116.481149 34.8401032,119.545641 35.0948407,122.908784 C35.8172305,132.146012 37.7752873,136.829302 43.3490955,142.362889 C49.0065488,147.982076 54.8350945,150.409322 62.7490656,150.409322 C67.8114978,150.409322 71.7257103,149.429673 76.1493978,147.13178 C79.8088728,145.216234 85.167865,139.724496 87.0821982,135.979006 C90.1029285,130.146768 90.1029285,130.146768 90.4013896,111.075011 L90.656127,93.835101 L91.9754391,90.3863582 C95.1653607,81.9157282 101.377914,75.7848411 109.502899,72.9333984 C113.373388,71.5714017 118.521366,70.9322525 120.648614,71.4858014 C123.967805,72.3798495 126.136876,75.9978908 125.285216,79.1898327 C124.349912,82.5948243 122.350032,84.0005722 117.840799,84.3829204 C113.799217,84.7652687 110.269012,86.5533648 107.459296,89.5760082 C103.716176,93.7057494 103.672452,94.0024973 103.461438,112.606306 C103.248523,129.422019 103.079332,130.911465 101.121275,136.616253 C96.4846727,149.941373 84.5709429,160.114499 70.4900434,162.838492 C66.6651791,163.563242 58.4109243,163.563242 54.6678042,162.796643 Z" id="Path"></path>
                            <path d="M58.9223003,139.553296 C53.6887758,138.531798 48.4989749,134.360208 46.0732657,129.16712 C44.9668686,126.783626 44.7121311,125.590928 44.41367,121.164439 C43.9460176,115.246601 42.8814431,110.563311 41.0526561,106.51917 C37.0129759,97.6224409 28.9298134,90.1295571 19.8258,86.8101659 C15.9971336,85.4063202 10.168588,84.255471 6.93494278,84.255471 C3.61575142,84.255471 1.23376586,82.5529752 0.256638508,79.4884828 C-0.764212445,76.33839 1.4485818,72.4216985 4.76587214,71.5276505 C5.74490052,71.2290004 7.87214859,71.2290004 10.8491553,71.4858014 C24.6334947,72.7203486 37.607997,79.5303318 45.947798,89.9184096 C52.9245633,98.6020893 56.4566696,107.62817 57.2208821,118.567895 C57.5611657,123.760983 57.9432719,124.78248 59.9013287,125.975178 C62.410683,127.508376 65.6443282,126.827377 67.2621013,124.400132 C67.900846,123.420483 68.0282148,122.526435 67.9426686,119.163293 C67.38947,97.8792419 54.0746841,77.3598875 34.461799,67.6547103 C26.123899,63.5249691 18.7631264,61.5238232 9.74465919,60.9702743 C4.68222699,60.6716242 2.68234766,59.8213274 1.4485818,57.4378332 C-0.167290286,54.4151899 0.768014497,50.966447 3.74502119,48.7541535 C4.80769471,47.9875549 5.49016304,47.8601055 9.2332832,47.9457058 C39.436784,48.5810506 67.6004839,69.3553039 77.1721498,98.0903894 C79.9799651,106.51917 80.7460786,111.075011 80.7879012,119.163293 L80.8297237,126.188228 L79.4685891,129.083422 C75.6836464,137.084201 67.5149378,141.255791 58.9223003,139.553296 Z" id="Path"></path>
                            <path d="M79.3431214,79.6577813 C78.4078166,79.1898327 76.6208522,77.2742871 74.3662354,74.2516437 C59.9013287,54.9668365 41.3092946,43.8140624 17.9532894,40.4090708 C11.9555524,39.5150227 10.9347015,39.0889232 9.27510577,36.5779796 C6.89312021,33.1292368 9.31692834,27.7649483 13.5714245,26.9565006 C15.3583889,26.6578505 23.1868139,27.7230992 29.1427283,29.1706962 C43.0126139,32.4482384 57.5611657,39.7280724 68.2392287,48.7104022 C71.4291503,51.3506974 78.9172916,58.8416789 81.1719084,61.6512726 C82.4912205,63.226319 82.1927594,63.3537684 85.9377806,60.0343771 C93.3403757,53.5629908 103.763701,49.1365018 114.10148,48.0731552 C119.207636,47.5614554 121.163792,47.9019545 122.823388,49.6482016 C124.355615,51.3506974 124.86509,52.4577952 124.86509,54.3314917 C124.86509,58.4174817 122.14282,60.5898283 116.569012,60.9721765 C110.059899,61.4401251 103.932893,63.4850222 98.5301767,66.973712 C94.7015103,69.4428064 92.6598084,71.3165029 89.042156,75.6573917 C87.4262839,77.5729372 85.5537733,79.4466337 84.873206,79.7871329 C83.2573339,80.6374297 81.1719084,80.5936784 79.3431214,79.6577813 Z" id="Path"></path>
                            <path d="M85.0005747,45.7296079 C84.2344613,45.3891088 82.7041354,44.2820109 81.5540146,43.2167622 C77.0866036,39.0451719 71.0033204,36.448628 64.3231151,35.8950791 C61.9411296,35.7257806 60.1959877,35.3415302 59.3462291,34.8317326 C55.3464704,32.3626381 55.390194,26.2755023 59.4317753,23.8064078 C61.8574844,22.3169617 69.6421858,22.8267594 75.725469,24.8697543 C81.9361209,26.9565006 90.361468,32.4900875 92.7852761,36.1499779 C93.7643045,37.5975749 93.8916733,38.1929729 93.7205809,40.1085184 C93.507666,42.8325117 92.4868151,44.365709 90.1466521,45.5146559 C88.1486738,46.4962066 86.8730853,46.5818069 85.0005747,45.7296079 Z" id="Path"></path>
                            <path d="M108.35658,40.1104207 C107.377552,39.6424721 106.060141,38.153026 104.356821,35.6401803 C98.0188007,26.1480528 89.042156,19.208718 78.5751069,15.6743748 C67.8114978,12.0125821 55.0499104,12.3112322 44.6684075,16.4409734 C40.2865426,18.1853183 38.2866633,19.2505671 33.9047984,22.2732104 C31.2243518,24.0613066 30.4582383,24.4018058 28.75682,24.4018058 C23.779934,24.4018058 20.6736576,19.2943184 22.9700969,14.9077761 C24.4167777,12.0563334 34.2869046,6.13849604 42.0297834,3.41450275 C53.2192224,-0.502188706 66.4921858,-1.05573762 78.0219084,1.88130542 C93.3365737,5.79799688 105.801601,14.5672769 114.949338,27.9342468 C117.671607,31.8927873 118.310352,33.8520841 117.587962,36.0643776 C116.312374,40.1104207 112.0997,41.9403659 108.35658,40.1104207 Z" id="Path"></path>
                        </g>
                    </g>
                </g>
            </g>
        </g>
    </g>
</svg>